<?xml version="1.0" encoding="utf-8"?>
<!-- Generator: Adobe Illustrator 16.0.0, SVG Export Plug-In . SVG Version: 6.00 Build 0)  -->
<!DOCTYPE svg PUBLIC "-//W3C//DTD SVG 1.1//EN" "http://www.w3.org/Graphics/SVG/1.1/DTD/svg11.dtd">
<svg version="1.1" id="Layer_1" xmlns="http://www.w3.org/2000/svg" xmlns:xlink="http://www.w3.org/1999/xlink" x="0px" y="0px"
	 width="750px" height="450.344px" viewBox="0 24.828 750 450.344" enable-background="new 0 24.828 750 450.344"
	 xml:space="preserve">
<g id="DESIGNED_BY_FREEPIK">
</g>
<g>
	<g>
		<defs>
			<polyline id="SVGID_1_" points="0,470.672 16.738,321.512 36.5,167.858 0,59.044 294.077,24.828 362.5,59.044 606.5,41.936 
				750,59.044 728.5,276.672 750,470.672 750,475.172 431.576,453.406 0,475.172 			"/>
		</defs>
		<clipPath id="SVGID_2_">
			<use xlink:href="#SVGID_1_"  overflow="visible"/>
		</clipPath>
		<g id="BACKGROUND" clip-path="url(#SVGID_2_)">
			<g>
				
					<linearGradient id="SVGID_3_" gradientUnits="userSpaceOnUse" x1="-753.0005" y1="37.1885" x2="-753.0005" y2="336.791" gradientTransform="matrix(1 0 0 1 1128 -111)">
					<stop  offset="0.0464" style="stop-color:#D8C6EC"/>
					<stop  offset="0.1775" style="stop-color:#D8C6EC"/>
					<stop  offset="0.6875" style="stop-color:#E8E5EC"/>
				</linearGradient>
				<rect y="-24.828" fill="url(#SVGID_3_)" width="750" height="500"/>
			</g>
		</g>
	</g>
	<g>
		<defs>
			<polyline id="SVGID_4_" points="0,470.672 16.738,321.512 36.5,167.858 0,59.044 294.077,24.828 362.5,59.044 606.5,41.936 
				750,59.044 728.5,276.672 750,470.672 750,475.172 431.576,453.406 0,475.172 			"/>
		</defs>
		<clipPath id="SVGID_5_">
			<use xlink:href="#SVGID_4_"  overflow="visible"/>
		</clipPath>
		<g clip-path="url(#SVGID_5_)">
			<g>
				<g>
					<g>
						<defs>
							<rect id="SVGID_6_" y="-24.828" width="750" height="500"/>
						</defs>
						<clipPath id="SVGID_7_">
							<use xlink:href="#SVGID_6_"  overflow="visible"/>
						</clipPath>
						<g clip-path="url(#SVGID_7_)">
							<path opacity="0.2" fill="#FFFFFF" enable-background="new    " d="M-116.84,34.292c-9.437-0.473-9.334-14.456,0.108-14.806
								c114.715-4.238,414.776-13.965,419.736,0.048C309.139,36.865,25.995,32.6,62.545,42.454
								c36.55,9.853,231.261,0.646,228.961,6.538c-2.299,5.892-123.347,3.793-84.8,13.747
								c38.548,9.954,177.976,4.969,168.635,11.507C366,80.783,271.07,76.999,312.564,88.102
								c41.493,11.104,140.972,4.104,128.333,16.483C428.258,116.964-58.377,97.433-19.77,86.362
								c38.607-11.071,135.534-7.184,107.175-20.629c-28.359-13.445-265.318-0.361-252.578-14.738
								c12.74-14.377,137.481-6.083,112.764-12.336C-64.217,35.672-92.165,35.527-116.84,34.292z"/>
							<path opacity="0.2" fill="#FFFFFF" enable-background="new    " d="M764.91,126.058c0,0-180-6-181,1s113,6,93,13
								s-121,6-101,15s251,12,239,2s-84-20-84-20s106,6,95-1S764.91,126.058,764.91,126.058z"/>
							<path opacity="0.2" fill="#FFFFFF" enable-background="new    " d="M546.117,57.402c-6.113-1.121-5.251-10.123,0.964-10.025
								c61.788,0.963,251.667,3.379,250.829-3.319c-1-8-285-15-301-8s16,25,16,25s-68,3-50,9s292,13,278,3
								C729.92,65.208,596.285,66.602,546.117,57.402z"/>
						</g>
					</g>
					<g>
						<g>
							<defs>
								<rect id="SVGID_8_" y="-24.828" width="750" height="500"/>
							</defs>
							<clipPath id="SVGID_9_">
								<use xlink:href="#SVGID_8_"  overflow="visible"/>
							</clipPath>
							<g clip-path="url(#SVGID_9_)">
								<circle opacity="0.58" fill="#FFFFFF" enable-background="new    " cx="408.083" cy="195.696" r="61.25"/>
								<g>
									<path fill="#E8CDDC" d="M804.89,246.397l-39.317,64.771l-164.45-0.641l-605.01-2.359l-36.15-84.101
										c6.82-1.88,11-8.721,17.16-12.2c4.04-2.29,8.85-3.08,12.62-5.771c3.35-2.39,5.54-6.039,8.45-8.949
										c2.42-2.42,5.32-4.301,8.19-6.16c7.24-4.69,15.28-11.351,23.83-12.43c22.62-2.841,46.27-6.07,64.89-19.221
										c5.86-4.14,11.07-9.17,17.15-12.97c6.64-4.15,14.14-6.71,21.08-10.35c19.34-10.15,33.4-28.15,51.81-39.91
										c5.37-3.431,11.38-6.38,17.62-7.08c1.75-0.19,3.521-0.22,5.3-0.021c7.2,0.78,13.53,4.95,19.44,9.141
										c4.88,3.449,9.76,7.04,13.6,11.63c5.7,6.78,8.97,15.54,15.61,21.41c4.89,4.319,11.21,6.699,16.26,10.819
										c3.91,3.181,6.96,7.33,11.01,10.33c2.75,2.04,5.86,3.48,9.04,4.8c2.04,0.851,4.1,1.65,6.12,2.53
										c21.59,9.45,38.41,28.75,61.18,34.84c1.82,0.48,3.83,1.04,5.59,1.87c4.47,2.09,9.58,2.521,14.148,0.65
										c19.289-7.87,41.859-10.36,62.352-10.28c3.648,0.01,7.357,0.16,10.88-0.78c4.71-1.27,8.69-4.37,12.479-7.439
										c11.182-9.03,22.529-18.641,36.352-22.62c5.939-1.71,12.37-2.38,17.53-5.79c7.618-5.03,11.448-15.35,20.159-18.07
										c5.891-1.85,12.238,0.431,18.408,0.21c8.801-0.31,16.49-5.6,24.29-9.689c3.16-1.66,6.63-3.13,10.15-4.01
										c5.17-1.28,10.438-1.301,15.02,1.25c11.723,6.529,25.553,12.779,36.62,20.369c4.271,2.94,7.91,6.74,12.25,9.57
										c8.353,5.45,18.75,6.96,27.24,12.19c11.46,7.069,18.24,20.18,29.87,26.989c10.647,6.23,24.12,6.4,34.5,13.08
										c7.89,5.08,13.09,13.34,19.91,19.79c5.3,5.021,11.55,8.9,17.75,12.761C792.18,238.506,798.54,242.446,804.89,246.397z"/>
									<path opacity="0.4" fill="#E8CDDC" enable-background="new    " d="M804.89,246.397l-39.317,64.771l-164.45-0.641
										c-61.67-24.619-122.642-49.109-122.642-49.109l75.25-35.64l-80.198,1.979l76.237-23.77l-40.59-25.74l67.33,7.92
										l-28.72-18.81l57.43,13.859l26.74-6.93l-25.75-4.95l17.83-18.819l-32.68,2.97l12.87-7.92l-11.57-27.01
										c5.17-1.28,10.439-1.301,15.02,1.25c11.723,6.529,25.553,12.779,36.62,20.369c4.271,2.94,7.91,6.74,12.25,9.57
										c8.353,5.45,18.75,6.96,27.24,12.19c11.46,7.069,18.24,20.18,29.87,26.989c10.648,6.23,24.12,6.4,34.5,13.08
										c7.89,5.08,13.09,13.34,19.91,19.79c5.3,5.021,11.55,8.899,17.75,12.761C792.18,238.506,798.54,242.446,804.89,246.397z"/>
									<path opacity="0.4" fill="#E8CDDC" enable-background="new    " d="M804.89,246.395l-39.317,64.769l-17.29-0.068
										l39.278-64.701c-6.351-3.949-12.711-7.891-19.068-11.84c-6.2-3.859-12.45-7.74-17.75-12.761
										c-6.82-6.449-12.021-14.71-19.91-19.79c-10.38-6.68-23.85-6.85-34.5-13.08c-11.63-6.81-18.41-19.92-29.87-26.989
										c-8.489-5.229-18.89-6.74-27.239-12.189c-4.341-2.83-7.979-6.63-12.25-9.57c-9.921-6.8-22.061-12.529-32.909-18.34
										l-1.399-3.279c5.17-1.28,10.439-1.301,15.02,1.25c11.723,6.529,25.553,12.779,36.621,20.369
										c4.271,2.94,7.909,6.74,12.25,9.57c8.352,5.45,18.75,6.96,27.239,12.189c11.46,7.069,18.24,20.18,29.87,26.989
										c10.649,6.23,24.12,6.4,34.5,13.08c7.891,5.08,13.09,13.341,19.91,19.79c5.3,5.021,11.55,8.899,17.75,12.761
										C792.18,238.503,798.54,242.444,804.89,246.395z"/>
									<path opacity="0.4" fill="#E8CDDC" enable-background="new    " d="M395.936,288.939c0,2.582-47.768-36.148-47.768-36.148
										l-19.366-19.365l35.503,16.783l49.059,32.277L395.936,288.939z"/>
									<path opacity="0.4" fill="#E8CDDC" enable-background="new    " d="M422.402,283.775l-35.504-34.857l47.769,19.365
										l-32.276-29.693l-30.339-2.582l-9.037-29.693l20.656,18.72l72.298,16.138l-30.982,4.519c0,0,32.273,38.732,30.339,38.087
										C453.388,283.133,422.402,283.775,422.402,283.775z"/>
									<path opacity="0.4" fill="#E8CDDC" enable-background="new    " d="M330.13,183.438c-2.71,0-80.17-8.11-80.17-8.11
										l-36.94,28.83l-11.71-50.44L186,137.497l23.42,2.7l21.62-10.812l-16.21-11.71l-12.07-28.649c1.75-0.19,3.52-0.22,5.3-0.021
										c7.2,0.78,13.53,4.95,19.44,9.141c4.88,3.449,9.76,7.04,13.6,11.63c5.7,6.78,8.97,15.54,15.61,21.41
										c4.89,4.319,11.21,6.699,16.26,10.819c3.91,3.181,6.96,7.33,11.01,10.33c2.75,2.04,5.86,3.48,9.04,4.8l-23.25,5.58
										C269.77,162.716,332.83,183.438,330.13,183.438z"/>
									<path opacity="0.4" fill="#E8CDDC" enable-background="new    " d="M293.02,157.133l-7.13,1.711
										c-1.85-0.891-3.64-1.9-5.29-3.131c-4.05-3-7.09-7.149-11.01-10.33c-5.05-4.119-11.37-6.5-16.25-10.819
										c-6.64-5.87-9.92-14.63-15.62-21.41c-3.83-4.59-8.71-8.18-13.6-11.63c-5.9-4.19-12.23-8.36-19.44-9.141
										c-0.17-0.02-0.35-0.039-0.52-0.039l-1.4-3.32c1.75-0.19,3.52-0.22,5.3-0.021c7.2,0.78,13.53,4.95,19.44,9.141
										c4.88,3.45,9.76,7.04,13.6,11.63c5.7,6.78,8.97,15.54,15.61,21.41c4.89,4.319,11.21,6.699,16.26,10.819
										c3.91,3.181,6.96,7.33,11.01,10.33C286.73,154.374,289.84,155.814,293.02,157.133z"/>
									<polygon opacity="0.4" fill="#E8CDDC" enable-background="new    " points="601.12,310.525 478.48,261.416 553.73,225.776 
										505,258.613 									"/>
									<polygon opacity="0.4" fill="#E8CDDC" enable-background="new    " points="201.31,153.716 217,188.613 251,167.113 
										330.13,183.438 249.96,175.326 213.02,204.156 									"/>
									<polygon opacity="0.4" fill="#E8CDDC" enable-background="new    " points="549.77,203.986 509.18,178.247 576.51,186.167 
										547.79,167.357 605.22,181.216 631.96,174.287 606.21,169.336 624.04,150.517 616,166.113 644.333,174.78 605.667,188.78 
										574,177.78 585.667,188.78 530,184.446 									"/>
								</g>
							</g>
						</g>
						<g>
							<g>
								<defs>
									<rect id="SVGID_10_" y="-24.828" width="750" height="500"/>
								</defs>
								<clipPath id="SVGID_11_">
									<use xlink:href="#SVGID_10_"  overflow="visible"/>
								</clipPath>
								<g clip-path="url(#SVGID_11_)">
									<path fill="#A892DD" d="M752.61,361.494c-45.24,5.16-87.88,10.529-133.11,15.68c-38.97,4.439-78.01,8.881-117.23,9.82
										c-53.897,1.299-107.647-4.041-161.35-8.09c-45.07-3.4-90.22-5.9-135.41-7.49c-83.91-2.99-167.97-2.852-251.91,0.398
										c-21.04,0.811-42.27,1.811-63.03-1.3c-3.57-0.541-7.33-1.301-9.93-3.608c-5.33-4.74-3.08-12.951-0.19-19.281
										c14.5-31.74,36.75-64.061,68.52-82.129c15.91-9.041,31.82-18.091,47.73-27.14c30.21-17.182,61.59-34.761,96.68-39.17
										c9.78-1.23,19.57-1.4,29.33-0.79c26.43,1.62,52.67,8.899,78.19,16.13l1.26,0.359c14.14,4,28.28,8.011,42.35,12.229
										c20.26,6.041,40.36,12.49,60.06,19.91c18.86,7.089,37.64,15.13,57.83,17.71c10.72,1.369,21.55,1.16,32.4,0.66
										c15.47-0.711,30.97-1.99,46.26-0.091c20.882,2.601,40.23,10.97,60.271,17.05c2.39,0.729,4.79,1.42,7.2,2.069
										c2.13,0.57,4.27,1.109,6.43,1.601c5.09,1.16,10.25,2.061,15.44,2.801c26.438,3.801,53.85,3.5,78.88,12.09
										c22.3,7.66,41.147,21.881,62.29,31.938c18.43,8.763,38.43,14.291,57.979,20.66
										C737.29,356.043,744.98,358.703,752.61,361.494z"/>
									<path opacity="0.2" fill="#A892DD" enable-background="new    " d="M477.59,308.717l31.021,6l-108.83,31.271l60.147-28.853
										l-31.409-0.66l44.239-18.249l-98.48,13.29l27.28-14.342l-12.168-3.528l57.641-11.398c0,0-67.2-6.781-69.16-7
										c-1.09-0.121,8.08-5.182,16.93-9.852c15.471-0.709,30.971-1.99,46.26-0.09c20.882,2.6,40.23,10.971,60.271,17.051
										l-5.8,0.84l13,1.229c2.13,0.57,4.27,1.111,6.43,1.602c5.09,1.16,10.25,2.062,15.44,2.802l-13.771,5.448l25.021,2.552
										L477.59,308.717z"/>
									<path opacity="0.2" fill="#A892DD" enable-background="new    " d="M161.33,291.453l139.73,50.18l-95.55,29.781
										c-83.91-2.99-167.97-2.852-251.91,0.398c-21.04,0.811-42.27,1.811-63.03-1.3c-3.57-0.541-7.33-1.301-9.93-3.608
										c-5.33-4.74-3.08-12.951-0.19-19.281c14.5-31.74,36.75-64.061,68.52-82.131c15.91-9.039,31.82-18.089,47.73-27.138
										c30.21-17.182,61.59-34.761,96.68-39.17c9.78-1.23,19.57-1.4,29.33-0.79l-0.75,1.97l15.44,10.04l-35.51-3.09l26.25,24.7
										l-60.21,1.54l44.77,15.439l77.97-20.84l-32.42,19.3l72.56-6.181l-46.32,23.939l131.24,18.521L161.33,291.453z"/>
									<polygon opacity="0.2" fill="#A892DD" enable-background="new    " points="122.71,198.395 125,207.113 90,206.113 
										113,226.614 56.5,228.614 67.93,233.554 128.14,232.014 103,209.613 137.4,210.403 									"/>
									<polygon opacity="0.2" fill="#A892DD" enable-background="new    " points="184.49,265.213 315.73,283.734 161.33,291.453 
										301.06,341.633 138.667,294.781 195,275.445 									"/>
								</g>
							</g>
							<g id="OBJECTS">
								<g>
									<defs>
										<rect id="SVGID_12_" y="-24.828" width="750" height="500"/>
									</defs>
									<clipPath id="SVGID_13_">
										<use xlink:href="#SVGID_12_"  overflow="visible"/>
									</clipPath>
									<g clip-path="url(#SVGID_13_)">
										<path fill="#8381DB" d="M120.442,83.672c0.688-2.195,1.817-4.249,3.245-6.13c1.461-1.837,3.341-3.526,5.765-4.399
											c2.404-0.935,5.238-0.699,7.559,0.271c2.331,1.004,4.301,2.517,5.989,4.199l-2.542,0.864
											c0.208-1.264,0.513-2.331,0.971-3.448c0.465-1.09,1.026-2.175,1.849-3.125c0.804-0.952,1.835-1.792,3.039-2.308
											c1.198-0.534,2.534-0.659,3.747-0.522c2.455,0.278,4.508,1.401,6.312,2.666c1.798,1.3,3.395,2.792,4.816,4.432
											c-1.84-1.15-3.65-2.299-5.547-3.192c-1.867-0.922-3.857-1.581-5.713-1.606c-1.863-0.009-3.399,0.817-4.462,2.281
											c-1.055,1.428-1.754,3.411-2.044,5.211l-0.475,2.947l-2.067-2.083c-1.511-1.522-3.181-2.854-5.011-3.684
											c-0.904-0.417-1.846-0.754-2.811-0.842c-0.962-0.101-1.936-0.03-2.902,0.201c-1.928,0.49-3.771,1.671-5.371,3.153
											C123.161,80.03,121.737,81.789,120.442,83.672z"/>
										<path fill="#8381DB" d="M112.036,69.833c0.332-1.057,0.875-2.046,1.563-2.951c0.703-0.884,1.608-1.698,2.776-2.118
											c1.158-0.45,2.522-0.337,3.639,0.131c1.123,0.483,2.071,1.211,2.884,2.021l-1.224,0.417
											c0.1-0.609,0.247-1.123,0.467-1.661c0.224-0.524,0.495-1.047,0.89-1.505c0.387-0.458,0.884-0.862,1.463-1.111
											c0.577-0.257,1.22-0.317,1.804-0.251c1.182,0.134,2.171,0.675,3.04,1.283c0.866,0.626,1.635,1.345,2.319,2.134
											c-0.886-0.554-1.758-1.106-2.671-1.537c-0.899-0.443-1.857-0.761-2.751-0.773c-0.897-0.004-1.637,0.394-2.148,1.099
											c-0.508,0.688-0.845,1.643-0.984,2.509l-0.229,1.42l-0.995-1.003c-0.728-0.733-1.532-1.374-2.413-1.774
											c-0.436-0.2-0.889-0.362-1.354-0.405c-0.463-0.048-0.932-0.015-1.397,0.097c-0.928,0.236-1.815,0.806-2.586,1.519
											C113.345,68.081,112.66,68.927,112.036,69.833z"/>
										<path fill="#8381DB" d="M600.551,96.688c0.951-1.307,2.163-2.42,3.536-3.351c1.384-0.895,3.015-1.597,4.823-1.633
											c1.81-0.083,3.643,0.71,4.969,1.877c1.326,1.191,2.297,2.64,3.043,4.139l-1.886,0.005c0.422-0.795,0.864-1.437,1.42-2.077
											c0.555-0.621,1.172-1.217,1.932-1.664c0.749-0.453,1.624-0.781,2.541-0.854c0.917-0.087,1.834,0.13,2.61,0.493
											c1.571,0.737,2.686,1.944,3.602,3.191c0.905,1.269,1.635,2.619,2.211,4.029c-0.967-1.178-1.911-2.349-2.975-3.369
											c-1.036-1.032-2.212-1.918-3.441-2.352c-1.235-0.424-2.443-0.219-3.479,0.517c-1.021,0.713-1.933,1.876-2.53,3.009
											l-0.978,1.854l-0.908-1.85c-0.663-1.353-1.478-2.613-2.507-3.576c-0.509-0.48-1.061-0.916-1.684-1.191
											c-0.616-0.283-1.279-0.455-1.976-0.518c-1.394-0.106-2.885,0.266-4.282,0.893
											C603.178,94.875,601.836,95.724,600.551,96.688z"/>
									</g>
								</g>
								<g>
									<g>
										<defs>
											<rect id="SVGID_14_" y="-24.828" width="750" height="500"/>
										</defs>
										<clipPath id="SVGID_15_">
											<use xlink:href="#SVGID_14_"  overflow="visible"/>
										</clipPath>
										<g clip-path="url(#SVGID_15_)">
											<g>
												<g>
													<g>
														<path fill="#6563D1" d="M772.67,292.717c-7.182-2.391-14.521-4.07-21.954-5.131
															c-28.776-4.148-59.02,0.791-87.229,8.771c-35.484,10.039-69.538,24.721-105.729,32.17
															c-20.333,4.188-41.613,6.198-60.019,15.397c-16.632,8.312-29.752,21.928-45.052,32.168
															c-1.659-0.688-3.324-1.365-4.998-2.018c-21.11-8.199-43.271-13.681-65.791-16.101
															c-36.319-3.92-73.75-0.211-108.892-10.2c-10.34-2.939-20.38-7.05-30.95-9.021c-27.23-5.07-55.19,4.41-82.82,2.359
															c-33.271-2.459-63.51-21.4-96.71-24.65c-20.85-2.039-46.42,3.312-69.66,13.691c-1.68,0.75-3.35,1.528-5,2.328
															c-20.74,10.069-39.13,24.141-49.92,40.471C-94.563,422.135-39.75,478.592-6.67,480.109
															c80.277,3.684,175.062,24.317,255.333,28c5.771-2.795,11.457-5.746,17.191-8.726c3.971-2.062,8.079-4.76,12.297-7.94
															H767.75L772.67,292.717z M432.635,386.336c-12.224,4.295-25.357,5.965-38.361,8.094
															c17.211-5.727,34.674-10.682,52.018-15.979c1.812-0.555,3.613-1.125,5.413-1.697
															c-4.003,2.623-8.154,5.016-12.57,7.002C437.005,384.717,434.836,385.566,432.635,386.336z"/>
														<path opacity="0.4" fill="#6563D1" enable-background="new    " d="M451.333,404.781c0,0-286.667,55.332-275.333,58
															c6.45,1.518,182.413-6.035,332.85-12.824c102.818-4.641,194.28-63.928,243.824-154.143
															c2.994-5.453,6.118-8.562,9.326-8.367c22,1.334,39.333,28,42,32s-11.333,204.666-11.333,204.666
															S124,526.781,122,526.781s-84-53.334-84-53.334S374.667,365.447,451.333,404.781z"/>
														<path opacity="0.2" fill="#6563D1" enable-background="new    " d="M309.667,371.617l-173.33-30.67l48.66,22.67
															l-164.66-22.67l59.33-3.33l-86.63-7.461c23.24-10.381,48.81-15.73,69.66-13.689c33.2,3.25,63.438,22.189,96.71,24.65
															c27.63,2.049,55.59-7.433,82.82-2.361c10.57,1.971,20.61,6.08,30.95,9.021c35.14,9.989,72.57,6.278,108.89,10.198
															c22.521,2.421,44.683,7.9,65.792,16.103l-148.19-11.131L309.667,371.617z"/>
														<path opacity="0.3" fill="#4742BA" enable-background="new    " d="M588.664,333.256l88.912-12.889
															c0,0-107.918,21.92-107.918,23.85c0,1.892,115.668-8.561,120.646-9.01l-143.046,21.26l94.378,17.42
															c-37.328-6.1-134.904,3.32-209.004,12.449c2.201-0.77,4.37-1.619,6.497-2.58c21.766-9.789,37.296-29.18,58.608-39.83
															c18.404-9.199,39.686-11.209,60.019-15.397c36.19-7.449,70.244-22.131,105.729-32.171
															c28.209-7.979,58.449-12.92,87.229-8.771l-60.925,12.149l15.615,15.472
															C675.533,302.967,588.664,333.256,588.664,333.256z"/>
													</g>
													<g>
														<g>
															<path fill="#B9BFFD" d="M566.01,381.023c-0.84,4.149-13.22,8.092-33.857,12.131
																c-10.433,2.051-22.96,4.119-37.183,6.27c-9.87,1.49-20.567,3.012-31.938,4.58c-12.263,1.701-25.3,3.451-38.95,5.271
																c-31.7,4.239-66.67,8.858-102.65,14.108c-12.61,1.84-25.34,3.75-38.1,5.74c-10.23,1.6-20.47,3.26-30.69,4.971
																c-14.77,2.479-29.48,5.08-43.97,7.83c-17.03,3.219-33.76,6.629-49.95,10.25c-9.88,2.219-19.56,4.51-28.98,6.89
																c-59.89,15.11-109.45,33.682-134.53,57.079c22.88-47.26-96.83,43.562-43.81-35.59
																c16.09-24.01,57.09-44.198,109.63-60.239c8.85-2.699,18.03-5.279,27.47-7.75c15.5-4.05,31.7-7.771,48.33-11.171
																c14.28-2.92,28.88-5.6,43.61-8.028c10.31-1.699,20.69-3.279,31.07-4.75c13.19-1.851,26.39-3.51,39.47-4.972
																c40.3-4.5,79.49-7.108,113.91-7.75c17.928-0.34,34.56-0.141,49.377,0.609c10.87,0.551,20.771,1.391,29.48,2.531
																c-7.63-13.342-28.811-11.75-40.811-17.892c3.521-0.569,11.221-1.141,21.438-1.541c12.94-0.51,29.94-0.75,47.66-0.358
																C518.18,360.244,569.16,365.453,566.01,381.023z"/>
														</g>
														<path opacity="0.3" fill="#B9BFFD" enable-background="new    " d="M89.854,464.875
															c-26.9,8.121-40.244-31.617-14.177-42.105c0.545-0.221,1.097-0.438,1.656-0.653c36-14,218.667-20,214-30
															s4-10.668,21.333-10.668s142.667,6.668,141.333-2.666c-1.333-9.334-27.333-15.334-27.333-15.334s102.666-2,108,5.334
															c5.333,7.334-17.334,3.334-17.334,3.334s28,10,15.334,15.332c-12.667,5.334-168,30-174.667,26.668
															c-6.667-3.334-246.667,42-266,50C91.31,464.398,90.593,464.652,89.854,464.875z"/>
													</g>
													<g>
														<path fill="#FFD59C" d="M654.861,296.916l-5.844-1.135C651.069,296.129,653.029,296.514,654.861,296.916z"/>
														<g>
															<polygon fill="#23207D" points="640.334,441.055 566.646,441.055 571.048,423.18 588.567,406.836 572.961,415.5 
																579.466,389.07 591.219,377.891 581.051,382.701 584.959,366.902 595.592,359.441 585.943,362.857 595.264,325.168 
																601.741,298.93 620.026,366.221 606.989,359.441 621.939,373.271 629.429,400.85 615.763,392.787 631.506,408.529 
																634.021,417.795 															"/>
															<polygon fill="#1B1961" points="603.49,361.783 604.49,441.045 602.49,441.045 															"/>
															<path opacity="0.3" fill="#23207D" enable-background="new    " d="M634.021,417.795
																c-5.521,1.012-11.427-1.775-15.089-6.121c-4.046-4.838-5.738-11.207-6.45-17.467
																c-0.709-6.258-0.545-12.6-1.395-18.83c-1.886-13.529-8.5-25.885-12.928-38.812
																c-1.312-3.908-2.296-7.707-2.897-11.396l6.479-26.237l18.285,67.29l-13.037-6.778l14.949,13.83l7.489,27.577
																l-13.666-8.062l15.742,15.744L634.021,417.795z"/>
														</g>
														<g>
															<polygon fill="#23207D" points="693.869,438.381 620.182,438.381 624.582,420.506 642.104,404.162 626.496,412.826 
																633.001,386.396 644.754,375.217 634.586,380.027 638.494,364.23 649.127,356.768 639.479,360.186 648.799,322.494 
																655.276,296.256 673.562,363.547 660.523,356.768 675.475,370.598 682.963,398.176 669.298,390.113 685.041,405.855 
																687.555,415.121 															"/>
															<polygon fill="#1B1961" points="657.025,359.109 658.025,438.373 656.025,438.373 															"/>
															<path opacity="0.3" fill="#23207D" enable-background="new    " d="M687.555,415.121
																c-5.521,1.012-11.424-1.775-15.087-6.121c-4.045-4.838-5.739-11.207-6.45-17.465
																c-0.711-6.26-0.547-12.603-1.394-18.832c-1.886-13.529-8.501-25.883-12.929-38.812
																c-1.312-3.907-2.295-7.707-2.896-11.396l6.479-26.238l18.284,67.291l-13.036-6.779l14.948,13.83l7.488,27.578
																l-13.665-8.061l15.743,15.739L687.555,415.121z"/>
														</g>
														<g>
															<path fill="#8381DB" d="M675.637,485.707h-77.947l5.351-25.715l15.979-12.713l-15.181,8.807l5.732-27.668
																l12.104-12.105l-11.177,7.591l4.163-20.047l8.103-5.154l-7.332,1.471l6.888-33.207l7.907-38.174l22.354,77.242
																l-10.6-4.678l11.849,9l10.376,35.771c-6.021-4.1-16.557-11.24-17.837-12.105l19.79,18.896l4.228,14.604
																L675.637,485.707z"/>
															<path fill="#9391E0" d="M670.385,467.518c-4.035,4.484-10.312,7.017-15.628,4.519
																c-5.54-2.562-7.846-8.998-9.604-14.828c-3.106-10.246-6.245-20.494-9.354-30.773
																c-3.104-10.217-6.244-20.495-8.197-31c-1.762-9.479-2.723-19.276-5.282-28.469l7.907-38.172l22.354,77.24
																l-10.601-4.676l11.85,8.998l10.376,35.771c-6.021-4.098-16.558-11.24-17.837-12.104l19.79,18.895L670.385,467.518z"
																/>
															<polygon fill="#3931AA" points="632.116,361.338 638.277,485.639 635.076,485.756 															"/>
														</g>
														<g>
															<path fill="#3B35AB" d="M621.604,477.863h-77.944l5.349-25.717l15.979-12.714l-15.182,8.808l5.732-27.668
																l12.104-12.105l-11.178,7.59l4.163-20.047l8.104-5.156l-7.334,1.476l6.886-33.209l7.909-38.172l22.353,77.239
																l-10.6-4.676l11.849,9l10.376,35.771c-6.021-4.103-16.557-11.24-17.837-12.105l19.79,18.896l4.228,14.604
																L621.604,477.863z"/>
															<path fill="#463EC9" d="M616.352,459.674c-4.033,4.482-10.312,7.012-15.628,4.517c-5.54-2.562-7.846-9-9.604-14.826
																c-3.106-10.248-6.245-20.496-9.354-30.775c-3.104-10.215-6.244-20.494-8.196-31
																c-1.763-9.479-2.724-19.276-5.283-28.469l7.909-38.172l22.353,77.24l-10.6-4.677l11.849,9l10.376,35.771
																c-6.021-4.103-16.557-11.24-17.837-12.105l19.79,18.896L616.352,459.674z"/>
															<polygon fill="#2B277D" points="578.083,353.492 584.243,477.793 581.043,477.91 															"/>
														</g>
														<g>
															<polygon fill="#3B35AB" points="715.933,478.779 642.246,478.779 646.646,460.904 664.166,444.559 648.561,453.223 
																655.064,426.793 666.817,415.615 656.648,420.426 660.559,404.627 671.189,397.166 661.542,400.582 670.862,362.891 
																677.34,336.652 695.625,403.943 682.588,397.166 697.538,410.996 705.027,438.572 691.361,430.51 707.104,446.254 
																709.619,455.52 															"/>
															<polygon fill="#2B277D" points="679.089,399.508 680.456,478.77 677.723,478.77 															"/>
															<path fill="#463EC9" d="M709.619,455.52c-5.521,1.013-11.425-1.774-15.087-6.122
																c-4.046-4.839-5.74-11.205-6.451-17.466c-0.71-6.26-0.546-12.6-1.394-18.832c-1.888-13.526-8.5-25.883-12.93-38.811
																c-1.312-3.908-2.296-7.707-2.896-11.398l6.478-26.237l18.285,67.291l-13.037-6.777l14.95,13.83l7.489,27.578
																l-13.666-8.062l15.742,15.742L709.619,455.52z"/>
														</g>
													</g>
													<g>
														<g>
															<g>
																<path fill="#716FD9" d="M375.5,369.957c0,0.102-0.006,0.209-0.006,0.316h-38.036c0-0.107-0.006-0.218-0.006-0.316
																	c0-7.75,4.635-14.42,11.288-17.375c2.365-1.066,4.984-1.648,7.736-1.648c8.517,0,15.727,5.593,18.149,13.312
																	C375.196,366.045,375.5,367.965,375.5,369.957z"/>
																<path fill="#8684D9" d="M374.625,364.244c-1.414,0.729-3.234,0.455-4.648-0.324
																	c-1.516-0.838-2.683-2.168-3.868-3.43c-1.186-1.258-2.473-2.515-4.097-3.115c-3.608-1.344-8.124,0.762-11.288-1.434
																	c-1.123-0.773-1.795-2.041-1.985-3.359c2.365-1.066,4.984-1.648,7.736-1.648
																	C364.992,350.934,372.203,356.525,374.625,364.244z"/>
																<g>
																	<polygon fill="#3931AA" points="355.842,370.271 356.159,355.582 356.476,370.271 																	"/>
																	<polygon fill="#3931AA" points="364.508,356.639 356.337,365.768 356.035,365.086 																	"/>
																	<polygon fill="#3931AA" points="346.541,360.76 356.251,368.121 355.855,368.617 																	"/>
																	<polygon fill="#3931AA" points="341.996,365.834 352.687,365.391 353.226,366.104 																	"/>
																	<polygon fill="#3931AA" points="370.427,364.881 360.376,361.266 360.608,360.676 																	"/>
																</g>
															</g>
															<g>
																<g>
																	<path fill="#716FD9" d="M190.863,377.635c0,0.076-0.004,0.158-0.004,0.24h-28.751c0-0.082-0.005-0.164-0.005-0.24
																		c0-5.856,3.504-10.897,8.532-13.135c1.788-0.805,3.768-1.246,5.848-1.246c6.438,0,11.888,4.229,13.719,10.062
																		C190.633,374.678,190.863,376.129,190.863,377.635z"/>
																	<path fill="#8684D9" d="M190.202,373.316c-1.069,0.551-2.445,0.346-3.514-0.244
																		c-1.146-0.633-2.028-1.642-2.924-2.594c-0.896-0.949-1.869-1.898-3.097-2.354c-2.727-1.018-6.14,0.574-8.532-1.084
																		c-0.849-0.584-1.356-1.543-1.5-2.541c1.788-0.805,3.768-1.246,5.848-1.246
																		C182.921,363.254,188.371,367.482,190.202,373.316z"/>
																	<g>
																		<polygon fill="#3931AA" points="176.004,377.873 176.243,366.768 176.483,377.873 																		"/>
																		<polygon fill="#3931AA" points="182.555,367.566 176.378,374.467 176.149,373.953 																		"/>
																		<polygon fill="#3931AA" points="168.973,370.682 176.313,376.248 176.014,376.621 																		"/>
																		<polygon fill="#3931AA" points="165.538,374.518 173.619,374.184 174.026,374.723 																		"/>
																		<polygon fill="#3931AA" points="187.029,373.799 179.431,371.064 179.606,370.619 																		"/>
																	</g>
																</g>
																<g>
																	<path fill="#706EDB" d="M174.592,381.809c0,0.062-0.004,0.125-0.004,0.189h-22.603
																		c0-0.064-0.004-0.129-0.004-0.189c0-4.604,2.755-8.567,6.708-10.323c1.406-0.634,2.962-0.979,4.598-0.979
																		c5.061,0,9.346,3.322,10.785,7.91C174.412,379.484,174.592,380.627,174.592,381.809z"/>
																	<path fill="#706EDB" d="M174.072,378.414c-0.84,0.434-1.922,0.271-2.762-0.191
																		c-0.901-0.498-1.594-1.289-2.299-2.039c-0.705-0.746-1.47-1.491-2.435-1.852c-2.144-0.799-4.827,0.453-6.708-0.852
																		c-0.667-0.462-1.066-1.214-1.18-1.998c1.406-0.634,2.962-0.979,4.598-0.979
																		C168.348,370.504,172.633,373.828,174.072,378.414z"/>
																	<g>
																		<polygon fill="#3931AA" points="162.91,381.996 163.099,373.266 163.287,381.996 																		"/>
																		<polygon fill="#3931AA" points="168.061,373.895 163.205,379.32 163.025,378.914 																		"/>
																		<polygon fill="#3931AA" points="157.383,376.344 163.153,380.719 162.918,381.014 																		"/>
																		<polygon fill="#3931AA" points="154.683,379.359 161.036,379.096 161.355,379.52 																		"/>
																		<polygon fill="#3931AA" points="171.578,378.793 165.604,376.645 165.743,376.295 																		"/>
																	</g>
																</g>
															</g>
														</g>
														<g>
															<g>
																<polygon fill="#4D4CB0" points="178,342.783 137.77,342.783 140.172,333.025 149.737,324.102 141.217,328.832 
																	144.769,314.4 151.185,308.299 145.634,310.926 147.768,302.301 153.572,298.227 148.305,300.092 153.394,279.514 
																	156.93,265.189 166.913,301.928 159.795,298.227 167.958,305.775 172.046,320.834 164.585,316.432 173.18,325.025 
																	174.553,330.084 																"/>
																<polygon fill="#36358C" points="157.885,299.504 158.385,342.779 157.385,342.779 																"/>
																<path opacity="0.3" fill="#4D4CB0" enable-background="new    " d="M174.553,330.084
																	c-3.015,0.553-6.238-0.969-8.237-3.342c-2.208-2.644-3.134-6.117-3.521-9.535
																	c-0.388-3.418-0.298-6.879-0.761-10.281c-1.029-7.387-4.641-14.131-7.058-21.188
																	c-0.716-2.135-1.253-4.209-1.582-6.225l3.537-14.324l9.983,36.737l-7.118-3.7l8.163,7.551l4.088,15.057
																	l-7.461-4.402l8.595,8.597L174.553,330.084z"/>
															</g>
															<g>
																<polygon fill="#4D4CB0" points="117.667,338.783 77.437,338.783 79.839,329.025 89.404,320.102 80.884,324.832 
																	84.435,310.4 90.852,304.299 85.301,306.926 87.435,298.301 93.239,294.227 87.972,296.092 93.06,275.514 
																	96.597,261.189 106.58,297.928 99.462,294.227 107.624,301.775 111.713,316.834 104.251,312.432 112.847,321.025 
																	114.22,326.084 																"/>
																<polygon fill="#36358C" points="97.552,295.504 98.052,338.779 97.052,338.779 																"/>
																<path opacity="0.3" fill="#4D4CB0" enable-background="new    " d="M114.22,326.084
																	c-3.014,0.553-6.237-0.969-8.237-3.342c-2.208-2.644-3.134-6.117-3.522-9.535
																	c-0.388-3.418-0.298-6.879-0.761-10.281c-1.03-7.387-4.641-14.131-7.059-21.188
																	c-0.716-2.135-1.253-4.209-1.582-6.225l3.537-14.324l9.983,36.737l-7.118-3.7l8.162,7.551l4.089,15.057
																	l-7.461-4.402l8.595,8.597L114.22,326.084z"/>
															</g>
															<g>
																<polygon fill="#4D4CB0" points="149.333,344.783 109.104,344.783 111.506,335.025 121.071,326.102 112.55,330.832 
																	116.102,316.4 122.518,310.299 116.967,312.926 119.101,304.301 124.906,300.227 119.638,302.092 124.727,281.514 
																	128.263,267.189 138.246,303.928 131.128,300.227 139.291,307.775 143.379,322.834 135.918,318.432 
																	144.514,327.025 145.886,332.084 																"/>
																<polygon fill="#36358C" points="129.218,301.504 129.718,344.779 128.718,344.779 																"/>
																<path opacity="0.3" fill="#4D4CB0" enable-background="new    " d="M145.886,332.084
																	c-3.014,0.553-6.237-0.969-8.237-3.342c-2.208-2.644-3.134-6.117-3.521-9.535
																	c-0.388-3.418-0.299-6.879-0.761-10.281c-1.03-7.387-4.641-14.131-7.058-21.188
																	c-0.716-2.135-1.253-4.209-1.582-6.225l3.537-14.324l9.983,36.737l-7.118-3.7l8.163,7.551l4.088,15.057
																	l-7.461-4.402l8.595,8.597L145.886,332.084z"/>
															</g>
															<g>
																<polygon fill="#4D4CB0" points="206.5,346.783 166.27,346.783 168.672,337.025 178.237,328.102 169.717,332.832 
																	173.269,318.4 179.685,312.299 174.134,314.926 176.268,306.301 182.072,302.227 176.805,304.092 181.894,283.514 
																	185.43,269.189 195.413,305.928 188.295,302.227 196.458,309.775 200.546,324.834 193.085,320.432 201.68,329.025 
																	203.053,334.084 																"/>
																<polygon fill="#36358C" points="186.385,303.504 186.885,346.779 185.885,346.779 																"/>
																<path opacity="0.3" fill="#4D4CB0" enable-background="new    " d="M203.053,334.084
																	c-3.015,0.553-6.238-0.969-8.237-3.342c-2.208-2.644-3.134-6.117-3.521-9.535
																	c-0.388-3.418-0.298-6.879-0.761-10.281c-1.029-7.387-4.641-14.131-7.058-21.188
																	c-0.716-2.135-1.253-4.209-1.582-6.225l3.537-14.324l9.983,36.737l-7.118-3.7l8.163,7.551l4.088,15.057
																	l-7.461-4.402l8.595,8.597L203.053,334.084z"/>
															</g>
															<g>
																<polygon fill="#4D4CB0" points="254.525,344.16 214.295,344.16 216.697,334.4 226.262,325.479 217.742,330.209 
																	221.293,315.779 227.71,309.676 222.159,312.303 224.292,303.678 230.097,299.604 224.83,301.469 229.918,280.891 
																	233.455,266.566 243.438,303.305 236.32,299.604 244.482,307.154 248.571,322.211 241.11,317.809 249.705,326.404 
																	251.078,331.463 																"/>
																<polygon fill="#36358C" points="234.41,300.881 234.91,344.156 233.91,344.156 																"/>
																<path opacity="0.3" fill="#4D4CB0" enable-background="new    " d="M251.078,331.463
																	c-3.014,0.551-6.237-0.971-8.237-3.344c-2.208-2.644-3.134-6.117-3.521-9.535
																	c-0.388-3.416-0.298-6.879-0.761-10.281c-1.029-7.387-4.641-14.131-7.058-21.188
																	c-0.716-2.135-1.253-4.209-1.582-6.225l3.536-14.324l9.983,36.738l-7.118-3.701l8.163,7.551l4.088,15.057
																	l-7.461-4.402l8.595,8.599L251.078,331.463z"/>
															</g>
															<g>
																<polygon fill="#4D4CB0" points="308.525,351.16 268.295,351.16 270.697,341.4 280.262,332.479 271.742,337.209 
																	275.293,322.779 281.71,316.676 276.159,319.303 278.292,310.678 284.097,306.604 278.83,308.469 283.918,287.891 
																	287.455,273.566 297.438,310.305 290.32,306.604 298.482,314.154 302.571,329.211 295.11,324.809 303.705,333.404 
																	305.078,338.463 																"/>
																<polygon fill="#36358C" points="288.41,307.881 288.91,351.156 287.91,351.156 																"/>
																<path opacity="0.3" fill="#4D4CB0" enable-background="new    " d="M305.078,338.463
																	c-3.014,0.551-6.237-0.971-8.237-3.344c-2.208-2.644-3.134-6.117-3.521-9.535
																	c-0.388-3.416-0.298-6.879-0.761-10.281c-1.029-7.387-4.641-14.131-7.058-21.188
																	c-0.716-2.135-1.253-4.209-1.582-6.225l3.536-14.324l9.983,36.737l-7.118-3.7l8.163,7.551l4.088,15.057
																	l-7.461-4.402l8.595,8.599L305.078,338.463z"/>
															</g>
															<g>
																<polygon fill="#4D4CB0" points="278.525,353.66 238.295,353.66 240.697,343.9 250.262,334.979 241.742,339.709 
																	245.293,325.279 251.71,319.176 246.159,321.803 248.292,313.178 254.097,309.104 248.83,310.969 253.918,290.391 
																	257.455,276.066 267.438,312.805 260.32,309.104 268.482,316.654 272.571,331.711 265.11,327.309 273.705,335.904 
																	275.078,340.963 																"/>
																<polygon fill="#36358C" points="258.41,310.381 258.91,353.656 257.91,353.656 																"/>
																<path opacity="0.3" fill="#4D4CB0" enable-background="new    " d="M275.078,340.963
																	c-3.014,0.551-6.237-0.971-8.237-3.344c-2.208-2.644-3.134-6.117-3.521-9.535
																	c-0.388-3.416-0.298-6.879-0.761-10.281c-1.029-7.387-4.641-14.131-7.058-21.188
																	c-0.716-2.135-1.253-4.209-1.582-6.225l3.536-14.324l9.983,36.737l-7.118-3.7l8.163,7.551l4.088,15.057
																	l-7.461-4.402l8.595,8.599L275.078,340.963z"/>
															</g>
															<g>
																<path fill="#706EDB" d="M345.87,346.193c-2.25,6.5-14.5,12.75-14.5,12.75s-15.75-4.75-16-16.75
																	c-0.05-2.25,0.45-5.431,1.28-9.101l3.72,3.351l-3.17-5.689c1.13-4.5,2.65-9.561,4.26-14.49l3.91,2.931l-3.02-5.601
																	c0.77-2.301,2-5.789,3.28-9.4c2.5-6.987,5.2-14.407,5.2-14.407s8.6,28,11.96,39.529l-4.92,7.629l5.27-6.39
																	c1.23,4.299,2.18,8.17,2.63,11.062C346.11,343.734,346.17,345.324,345.87,346.193z"/>
																<path opacity="0.3" fill="#706EDB" enable-background="new    " d="M345.77,341.613
																	c-1.83,0.551-4.05,0.069-5.73-0.972c-4.06-2.5-5.99-7.368-6.95-12.049c-0.96-4.672-1.23-9.551-3.14-13.932
																	c-1.08-2.471-2.66-4.721-3.56-7.271c-0.36-1.028-0.61-2.102-0.76-3.201c2.5-6.987,5.2-14.407,5.2-14.407
																	s8.6,28,11.96,39.528l-4.92,7.63l5.27-6.39C344.37,334.854,345.32,338.725,345.77,341.613z"/>
																<path fill="#3931AA" d="M330.714,312.947l0.75,50.75c0.006,0.414-0.325,0.754-0.739,0.762
																	c-0.414,0.006-0.755-0.326-0.761-0.74c0-0.006,0-0.016,0-0.021L330.714,312.947z"/>
															</g>
															<g>
																<path fill="#706EDB" d="M295.5,358.783h-35.25l2.418-11.629l7.227-5.75l-6.864,3.981l2.592-12.514l5.474-5.476
																	l-5.054,3.435l1.883-9.066l3.664-2.332l-3.316,0.666l3.113-15.018l3.577-17.265l10.109,34.933l-4.793-2.113
																	l5.358,4.068l4.692,16.178c-2.723-1.854-7.487-5.084-8.066-5.475l8.95,8.545l1.912,6.604L295.5,358.783z"/>
																<path opacity="0.3" fill="#706EDB" enable-background="new    " d="M293.125,350.559
																	c-1.825,2.027-4.664,3.17-7.067,2.041c-2.505-1.157-3.548-4.067-4.345-6.705c-1.405-4.635-2.824-9.27-4.229-13.918
																	c-1.405-4.618-2.824-9.268-3.708-14.018c-0.796-4.287-1.231-8.719-2.39-12.875l3.577-17.264l10.109,34.932
																	l-4.793-2.115l5.358,4.07l4.692,16.176c-2.723-1.854-7.487-5.082-8.066-5.473l8.95,8.543L293.125,350.559z"/>
																<polygon fill="#3931AA" points="275.818,302.539 278.604,358.752 277.157,358.805 																"/>
															</g>
															<g>
																<path fill="#8381DB" d="M196,350.783h-42.555l2.919-14.039l8.725-6.941l-8.288,4.812l3.13-15.107l6.609-6.606
																	l-6.102,4.145l2.273-10.945l4.423-2.813l-4.004,0.805l3.759-18.131l4.318-20.842l12.204,42.172l-5.787-2.554
																	l6.469,4.912l5.665,19.529c-3.287-2.238-9.039-6.137-9.738-6.608l10.805,10.315l2.308,7.973L196,350.783z"/>
																<path fill="#9391E0" d="M193.133,340.854c-2.203,2.447-5.63,3.828-8.532,2.466
																	c-3.024-1.398-4.284-4.912-5.245-8.097c-1.696-5.594-3.409-11.188-5.105-16.801
																	c-1.696-5.578-3.41-11.188-4.476-16.924c-0.961-5.176-1.486-10.525-2.885-15.543l4.318-20.842l12.204,42.172
																	l-5.787-2.555l6.469,4.913l5.665,19.529c-3.287-2.238-9.039-6.137-9.738-6.608l10.805,10.313L193.133,340.854z"/>
																<polygon fill="#3931AA" points="172.24,282.883 175.603,350.746 173.856,350.811 																"/>
															</g>
															<g>
																<polygon fill="#8381DB" points="321,361.783 280.77,361.783 283.172,352.025 292.737,343.102 284.217,347.832 
																	287.769,333.4 294.185,327.299 288.634,329.926 290.768,321.301 296.572,317.227 291.305,319.092 296.394,298.514 
																	299.93,284.189 309.913,320.928 302.795,317.227 310.958,324.775 315.046,339.834 307.585,335.432 316.18,344.025 
																	317.553,349.084 																"/>
																<polygon fill="#3931AA" points="300.885,318.504 301.631,361.779 300.139,361.779 																"/>
																<path fill="#9290DF" d="M317.553,349.084c-3.015,0.553-6.238-0.969-8.237-3.342
																	c-2.208-2.644-3.134-6.117-3.521-9.535c-0.388-3.418-0.298-6.879-0.761-10.281
																	c-1.029-7.387-4.641-14.131-7.058-21.188c-0.716-2.135-1.253-4.209-1.582-6.225l3.537-14.324l9.983,36.737
																	l-7.118-3.701l8.163,7.552l4.088,15.057l-7.461-4.402l8.595,8.597L317.553,349.084z"/>
															</g>
															<g>
																<polygon fill="#8381DB" points="245.5,354.283 205.27,354.283 207.672,344.525 217.237,335.602 208.717,340.332 
																	212.269,325.9 218.685,319.799 213.134,322.426 215.268,313.801 221.072,309.727 215.805,311.592 220.894,291.014 
																	224.43,276.689 234.413,313.428 227.295,309.727 235.458,317.275 239.546,332.334 232.085,327.932 240.68,336.525 
																	242.053,341.584 																"/>
																<polygon fill="#3931AA" points="225.385,311.004 226.131,354.279 224.639,354.279 																"/>
																<path fill="#9290DF" d="M242.053,341.584c-3.015,0.553-6.238-0.969-8.237-3.342
																	c-2.208-2.644-3.134-6.117-3.521-9.535c-0.388-3.418-0.298-6.879-0.761-10.281
																	c-1.029-7.387-4.641-14.131-7.058-21.188c-0.716-2.135-1.253-4.209-1.582-6.225l3.537-14.324l9.983,36.737
																	l-7.118-3.701l8.163,7.552l4.088,15.057l-7.461-4.402l8.595,8.597L242.053,341.584z"/>
															</g>
															<g>
																<polygon fill="#706EDB" points="136.333,351.283 96.104,351.283 98.506,341.525 108.071,332.602 99.55,337.332 
																	103.102,322.9 109.518,316.799 103.967,319.426 106.101,310.801 111.906,306.727 106.638,308.592 111.727,288.014 
																	115.263,273.689 125.246,310.428 118.128,306.727 126.291,314.275 130.379,329.334 122.918,324.932 
																	131.514,333.525 132.886,338.584 																"/>
																<polygon fill="#3931AA" points="116.218,308.004 116.964,351.279 115.472,351.279 																"/>
																<path opacity="0.3" fill="#706EDB" enable-background="new    " d="M132.886,338.584
																	c-3.014,0.553-6.237-0.969-8.237-3.342c-2.208-2.644-3.134-6.117-3.521-9.535
																	c-0.388-3.418-0.299-6.879-0.761-10.281c-1.03-7.387-4.641-14.131-7.058-21.188
																	c-0.716-2.135-1.253-4.209-1.582-6.225l3.537-14.324l9.983,36.737l-7.118-3.701l8.163,7.552l4.088,15.057
																	l-7.461-4.402l8.595,8.597L132.886,338.584z"/>
															</g>
															<g>
																<path fill="#8381DB" d="M166.5,357.783h-42.555l2.919-14.039l8.725-6.941l-8.288,4.812l3.13-15.107l6.609-6.606
																	l-6.102,4.145l2.273-10.945l4.423-2.813l-4.004,0.805l3.759-18.131l4.318-20.842l12.204,42.172l-5.787-2.553
																	l6.469,4.911l5.665,19.529c-3.287-2.238-9.039-6.137-9.738-6.608l10.805,10.315l2.308,7.973L166.5,357.783z"/>
																<path fill="#9391E0" d="M163.633,347.854c-2.203,2.447-5.63,3.828-8.532,2.466
																	c-3.024-1.398-4.284-4.912-5.245-8.097c-1.696-5.594-3.409-11.188-5.105-16.801
																	c-1.696-5.578-3.41-11.188-4.476-16.924c-0.961-5.176-1.486-10.525-2.885-15.543l4.318-20.842l12.204,42.172
																	l-5.787-2.555l6.469,4.913l5.665,19.529c-3.287-2.238-9.039-6.137-9.738-6.608l10.805,10.313L163.633,347.854z"/>
																<polygon fill="#3931AA" points="142.74,289.883 146.103,357.746 144.356,357.811 																"/>
															</g>
															<g>
																<polygon fill="#8381DB" points="264.08,357.613 228.413,357.613 230.259,350.336 233.793,348.385 230.549,349.162 
																	232.791,340.34 239.951,336.082 233.45,337.703 236.628,325.189 241.704,322.014 237.103,323.279 239.251,314.812 
																	241.124,313.324 242.363,312.348 241.164,312.77 239.634,313.297 242.838,300.666 245.884,288.613 252.991,315.564 
																	249.615,314.326 253.624,317.965 255.984,326.891 251.369,324.215 256.604,329.252 259.768,341.25 250.051,334.975 
																	260.639,344.561 263.196,354.277 																"/>
																<path fill="#9391E0" d="M263.196,354.277c-0.593,0.407-1.252,0.725-1.964,0.91
																	c-3.521,0.936-7.265-1.386-9.125-4.511c-1.859-3.125-2.254-6.883-2.532-10.51
																	c-0.277-3.639-0.514-7.383-2.096-10.654c-1.358-2.78-3.626-5.062-4.932-7.871c-1.226-2.608-1.542-5.432-1.424-8.317
																	c0-0.187,0.013-0.369,0.04-0.556c0.158-3.071,0.791-6.196,1.292-9.204c0.158-0.986,0.29-1.949,0.382-2.898
																	l3.046-12.053l7.107,26.951l-3.375-1.238l4.009,3.639l2.36,8.926l-4.615-2.676l5.235,5.037l3.164,11.998
																	l-9.717-6.275l10.588,9.586L263.196,354.277z"/>
																<polygon fill="#3931AA" points="246.249,304.871 246.908,357.613 245.59,357.613 																"/>
															</g>
															<g>
																<path fill="#706EDB" d="M212.102,344.738c-2.25,6.5-14.5,12.75-14.5,12.75s-15.75-4.75-16-16.75
																	c-0.05-2.25,0.45-5.431,1.28-9.101l3.72,3.351l-3.17-5.689c1.13-4.5,2.65-9.561,4.26-14.49l3.91,2.933l-3.02-5.603
																	c0.77-2.299,2-5.789,3.28-9.397c2.5-6.99,5.2-14.41,5.2-14.41s8.6,28,11.96,39.529l-4.92,7.631l5.27-6.392
																	c1.23,4.3,2.18,8.171,2.63,11.062C212.341,342.279,212.401,343.869,212.102,344.738z"/>
																<path opacity="0.3" fill="#706EDB" enable-background="new    " d="M212.001,340.158
																	c-1.83,0.551-4.05,0.069-5.73-0.972c-4.06-2.5-5.99-7.368-6.95-12.049c-0.96-4.67-1.23-9.551-3.14-13.932
																	c-1.08-2.469-2.66-4.719-3.56-7.271c-0.36-1.028-0.61-2.1-0.76-3.199c2.5-6.989,5.2-14.409,5.2-14.409
																	s8.6,28,11.96,39.528l-4.92,7.632l5.27-6.392C210.602,333.398,211.551,337.27,212.001,340.158z"/>
																<path fill="#3931AA" d="M196.946,311.492l0.75,50.75c0.006,0.414-0.325,0.756-0.739,0.762s-0.755-0.324-0.761-0.74
																	c0-0.006,0-0.016,0-0.02L196.946,311.492z"/>
															</g>
															<g>
																<path fill="#434299" d="M104.768,337.072c-2.25,6.5-14.5,12.75-14.5,12.75s-15.75-4.75-16-16.75
																	c-0.05-2.25,0.45-5.433,1.28-9.103l3.72,3.353l-3.17-5.689c1.13-4.5,2.65-9.561,4.26-14.49l3.91,2.933l-3.02-5.603
																	c0.77-2.301,2-5.791,3.28-9.397c2.5-6.99,5.2-14.41,5.2-14.41s8.6,28,11.96,39.527l-4.92,7.633l5.27-6.394
																	c1.23,4.302,2.18,8.17,2.63,11.062C105.008,334.613,105.068,336.203,104.768,337.072z"/>
																<path fill="#5554C2" d="M104.668,332.492c-1.83,0.551-4.05,0.067-5.73-0.971c-4.06-2.5-5.99-7.369-6.95-12.052
																	c-0.96-4.67-1.23-9.549-3.14-13.93c-1.08-2.47-2.66-4.72-3.56-7.271c-0.36-1.027-0.61-2.101-0.76-3.197
																	c2.5-6.99,5.2-14.41,5.2-14.41s8.6,28,11.96,39.527l-4.92,7.633l5.27-6.394
																	C103.268,325.732,104.218,329.602,104.668,332.492z"/>
																<path fill="#393882" d="M89.613,303.826l0.75,50.75c0.006,0.414-0.325,0.754-0.739,0.76
																	c-0.414,0.008-0.755-0.324-0.761-0.738c0-0.006,0-0.016,0-0.021L89.613,303.826z"/>
															</g>
														</g>
													</g>
												</g>
											</g>
										</g>
									</g>
								</g>
							</g>
						</g>
					</g>
				</g>
			</g>
		</g>
	</g>
</g>
</svg>
